# xmcd
#
# Track frame offsets: 
#        150
#        22051
#        38148
#        74446
#        89705
#        109188
#        127219
#
# Disc length: 1908 seconds
#
# Revision: 0
# Processed by: cddbd v1.5.2PL0 Copyright (c) Steve Scherf et al.
# Submitted via: ExactAudioCopy v0.99pb5
#
DISCID=68077207
DTITLE=Grooove-Connection - Watch your Step
DYEAR=2009
DGENRE=Soul
TTITLE0=Watch your Step (Bobby Parker)
TTITLE1=Soul with a capital S (Tower of Power)
TTITLE2=Black Magic Woman - Jingo lo Ba (Santana)
TTITLE3=Sinning Wheel (Blood, Sweat and Tears)
TTITLE4=Mercy (Duffy)
TTITLE5=Diggin' on James Brown (Tower of Power)
TTITLE6=Soul with a capital S (Instrumental, Tower of Power)
EXTD=
EXTT0=
EXTT1=
EXTT2=
EXTT3=
EXTT4=
EXTT5=
EXTT6=
PLAYORDER=
